<?xml version="1.0" encoding="UTF-8"?>
<svg viewBox="0 0 60 34" xmlns="http://www.w3.org/2000/svg">
 <path d="m0 2q15-4 30 0t30 0v30q-15 4-30 0t-30 0z" fill="#00247d"/>
 <path d="m0 2q3.3541-0.89443 6.7082-1.3888 11.646 4.1062 23.292 13.035 11.646-2.7174 23.292-10.257 3.3541-0.49443 6.7082-1.3888v3.3541q-11.646 8.9285-23.292 13.035 11.646 7.5397 23.292 10.257v3.3541q-3.3541 0.89443-6.7082 1.3888-11.646-4.1062-23.292-13.035-11.646 2.7174-23.292 10.257-3.3541 0.49443-6.7082 1.3888v-3.3541q11.646-8.9285 23.292-13.035-11.646-7.5397-23.292-10.257z" fill="#fff"/>
 <path d="m0 2q15 3.5 30 15-2.2361-0.59628-4.4721-1.0148-12.764-8.7709-25.528-11.749zm30 12.764q12.764-2.9782 25.528-11.749 2.2361-0.41851 4.4721-1.0148-15 11.5-30 15zm30 17.236q-15-3.5-30-15 2.2361 0.59628 4.4721 1.0148 12.764 8.7709 25.528 11.749zm-30-12.764q-12.764 2.9782-25.528 11.749-2.2361 0.41851-4.4721 1.0148 15-11.5 30-15z" fill="#cf142b"/>
 <path d="m25 0.88889q2.5 0.44444 5 1.1111t5 1.1111v10q12.5 2.2222 25-1.1111v10q-12.5 3.3333-25 1.1111v10q-2.5-0.44444-5-1.1111t-5-1.1111v-10q-12.5-2.2222-25 1.1111v-10q12.5-3.3333 25-1.1111z" fill="#fff"/>
 <path d="m27,1.28q1.5.32 3,.72t3,.72v12q13.5,2.88 27-.72v6q-13.5,3.6-27,.72v12q-1.5-.32-3-.72t-3-.72v-12q-13.5-2.88-27,.72v-6q13.5-3.6 27-.72z" fill="#cf142b"/>
</svg>
